HIERARCHY
ROOT pelvis
{
  OFFSET 0 100 0
  CHANNELS 6 Xposition Yposition Zposition Zrotation Xrotation Yrotation
  JOINT pelvis_right_femur
  {
    OFFSET -10.78128 -3.44521 -0.5502486
    CHANNELS 3 Zrotation Xrotation Yrotation
    JOINT right_femur_tibia
    {
      OFFSET -0.8047443 -44.0398 -0.1307829
      CHANNELS 3 Zrotation Xrotation Yrotation
      JOINT right_tibia_foot
      {
        OFFSET 3.006224 -47.83518 -5
        CHANNELS 3 Zrotation Xrotation Yrotation
        End Site
        {
          OFFSET 0 -5 15
        }
      }
    }
  }
  JOINT pelvis_left_femur
  {
    OFFSET 10.78128 -3.44521 -0.5502486
    CHANNELS 3 Zrotation Xrotation Yrotation
    JOINT left_femur_tibia
    {
      OFFSET 0.8047443 -44.0398 -0.1307829
      CHANNELS 3 Zrotation Xrotation Yrotation
      JOINT left_tibia_foot
      {
        OFFSET -4.370144 -48.10324 -4.275266
        CHANNELS 3 Zrotation Xrotation Yrotation
        End Site
        {
          OFFSET 0 -5 15
        }
      }
    }
  }
  JOINT pelvis_spine1
  {
    OFFSET 0 6.468898 -3.129235
    CHANNELS 3 Zrotation Xrotation Yrotation
    JOINT spine1
    {
      OFFSET 0 23.15396 4.99043
      CHANNELS 3 Zrotation Xrotation Yrotation
      JOINT spine2
      {
        OFFSET 0 20.79997 -5.064912
        CHANNELS 3 Zrotation Xrotation Yrotation
        JOINT neck
        {
          OFFSET 0 14.38658 9.616178
          CHANNELS 3 Zrotation Xrotation Yrotation
          End Site
          {
            OFFSET 0 20 0
          }
        }
      }
      JOINT right_manubrium
      {
        OFFSET -5.722621 16.35077 3.967754
        CHANNELS 3 Zrotation Xrotation Yrotation
        JOINT right_clavicle
        {
          OFFSET -13.16364 1.694482 -4.693211
          CHANNELS 3 Zrotation Xrotation Yrotation
          JOINT right_humerus
          {
            OFFSET -28.5034 -0.3100689 -2.792744
            CHANNELS 3 Zrotation Xrotation Yrotation
            JOINT right_radius
            {
              OFFSET -25.15693 0.02248979 -1.271978
              CHANNELS 3 Zrotation Xrotation Yrotation
              End Site
              {
                OFFSET -15 0 0
              }
            }
          }
        }
      }
      JOINT left_manubrium
      {
        OFFSET 5.722621 16.35077 3.967754
        CHANNELS 3 Zrotation Xrotation Yrotation
        JOINT left_clavicle
        {
          OFFSET 13.16364 1.694482 -4.693211
          CHANNELS 3 Zrotation Xrotation Yrotation
          JOINT left_humerus
          {
            OFFSET 29.39168 -1.063119 -2.237045
            CHANNELS 3 Zrotation Xrotation Yrotation
            JOINT left_radius
            {
              OFFSET 24.59957 -0.9528479 0.9047498
              CHANNELS 3 Zrotation Xrotation Yrotation
              End Site
              {
                OFFSET 15 -0 -0
              }
            }
          }
        }
      }
    }
  }
}
MOTION
Frames: 19
Frame Time: 0.0416666666667
-2020.658 95.4516 1689.577 -10.67624 7.330125 -125.4839 4.585546 7.292019 -10.74845 -0 17.28041 -0 -20.34345 11.00639 6.727407 -0.4498999 -7.322666 -2.565493 -0 19.60902 -0 8.824603 -4.546964 17.68249 0.4261168 -3.423827 4.492614 -1.431137 18.02455 -4.689242 0.9133921 23.48971 3.934967 3.613877 -18.37052 3.726 -6.595225 -26.84705 12.03256 96.06163 9.251058 -12.50431 -0 0 14.07274 -30.34207 7.568593 14.23497 6.078631 -28.04007 -11.15428 -90.16414 -0.2570199 22.11772 0 0 -7.027864 27.30127 13.9008 -22.72607
-2026.631 95.44106 1686.109 -10.64955 7.38608 -125.7791 4.5682 7.304502 -10.74711 -0 17.39935 -0 -20.33392 11.04079 6.728047 -0.4644254 -7.309711 -2.578081 -0 19.55097 -0 8.83101 -4.556915 17.69183 0.4179939 -3.423433 4.488317 -1.437371 18.02292 -4.683995 0.9144558 23.49355 3.938332 3.614112 -18.36329 3.730605 -6.593044 -26.84308 12.03006 96.06263 9.250165 -12.49275 -0 0 14.07362 -30.35334 7.563732 14.24249 6.076528 -28.02831 -11.15557 -90.16185 -0.2546126 22.1158 0 0 -7.006795 27.29558 13.8997 -22.71925
-2032.586 95.43539 1682.611 -10.62528 7.443359 -126.0699 4.550114 7.291075 -10.7518 -0 17.51524 -0 -20.33168 11.09345 6.73036 -0.4828677 -7.267801 -2.58931 -0 19.51795 -0 8.838811 -4.569457 17.69474 0.4110893 -3.423712 4.479871 -1.442584 18.02424 -4.681859 0.9153248 23.49826 3.941793 3.614991 -18.35565 3.734532 -6.593375 -26.83342 12.02803 96.07439 9.242194 -12.49326 -0 0 14.05817 -30.3653 7.558694 14.24616 6.075367 -28.02419 -11.16135 -90.15361 -0.260421 22.09974 0 0 -6.996778 27.30201 13.89514 -22.72796
-2038.526 95.43603 1679.082 -10.60237 7.50176 -126.3565 4.532589 7.253049 -10.76212 -0 17.61975 -0 -20.33681 11.16026 6.734189 -0.5038433 -7.200372 -2.598425 -0 19.51169 -0 8.847479 -4.583698 17.69115 0.4058735 -3.424648 4.467942 -1.44641 18.02835 -4.682946 0.9159333 23.50349 3.945104 3.616443 -18.34818 3.737513 -6.596153 -26.81889 12.02658 96.09588 9.227841 -12.50562 -0 0 14.02777 -30.37706 7.553825 14.24577 6.075226 -28.02791 -11.17115 -90.14012 -0.2739023 22.07095 0 0 -6.998359 27.31995 13.88753 -22.75135
-2044.45 95.44398 1675.52 -10.57964 7.560982 -126.6395 4.516866 7.193431 -10.77725 -0 17.70544 -0 -20.3489 11.23616 6.73928 -0.5258095 -7.112608 -2.604829 -0 19.53201 -0 8.856436 -4.598636 17.68143 0.4026953 -3.42618 4.453437 -1.448581 18.03493 -4.687147 0.9162335 23.50884 3.948033 3.618359 -18.34145 3.739348 -6.601149 -26.80064 12.02582 96.1254 9.208235 -12.52877 -0 0 13.98487 -30.38773 7.549457 14.2414 6.076113 -28.0391 -11.18419 -90.12247 -0.2939909 22.03173 0 0 -7.011273 27.348 13.87746 -22.7876
-2050.357 95.45964 1671.925 -10.55591 7.620654 -126.9197 4.504041 7.116726 -10.79606 -0 17.7663 -0 -20.36702 11.31554 6.745291 -0.5471808 -7.011055 -2.608115 -0 19.57693 -0 8.865082 -4.613224 17.66639 0.4017558 -3.428205 4.437427 -1.448952 18.04348 -4.694132 0.9162021 23.51391 3.950378 3.620599 -18.33597 3.739919 -6.607979 -26.78006 12.0258 96.16073 9.184846 -12.56091 -0 0 13.93271 -30.39653 7.545883 14.23341 6.077958 -28.0569 -11.1995 -90.102 -0.3191764 21.98506 0 0 -7.034456 27.38404 13.86568 -22.83397
-2056.247 95.48287 1668.296 -10.53012 7.68036 -127.1981 4.49498 7.028609 -10.81716 -0 17.79828 -0 -20.38985 11.39267 6.751807 -0.5664463 -6.903137 -2.608099 -0 19.64285 -0 8.872825 -4.626437 17.64718 0.4030933 -3.430578 4.421075 -1.447516 18.05336 -4.70337 0.915843 23.51835 3.951978 3.623 -18.33212 3.739201 -6.616137 -26.75866 12.02651 96.19927 9.159381 -12.59963 -0 0 13.87515 -30.40285 7.543341 14.22239 6.080619 -28.07995 -11.21596 -90.08024 -0.3476122 21.93437 0 0 -7.066121 27.42542 13.85305 -22.88706
-2062.121 95.51298 1664.633 -10.50135 7.73968 -127.4758 4.490262 6.93552 -10.83903 -0 17.79955 -0 -20.41568 11.46214 6.758363 -0.5822793 -6.79661 -2.604828 -0 19.72481 -0 8.879123 -4.637346 17.62522 0.4065796 -3.433125 4.405545 -1.444405 18.06385 -4.71417 0.9151878 23.52186 3.952731 3.625389 -18.33014 3.737262 -6.625028 -26.73797 12.02789 96.23824 9.133661 -12.64206 -0 0 13.81635 -30.40629 7.541995 14.2092 6.083891 -28.10654 -11.23239 -90.05874 -0.3772469 21.88333 0 0 -7.103888 27.46912 13.84045 -22.94298
-2067.977 95.54884 1660.936 -10.46894 7.798212 -127.754 4.490139 6.844188 -10.8601 -0 17.77066 -0 -20.44261 11.51921 6.764481 -0.5936288 -6.699003 -2.598576 -0 19.81688 -0 8.883526 -4.645191 17.60208 0.4119309 -3.435654 4.391923 -1.439878 18.07421 -4.72573 0.9142927 23.52421 3.952595 3.627597 -18.33011 3.73426 -6.634012 -26.71943 12.02983 96.27488 9.109491 -12.68513 -0 0 13.76047 -30.40669 7.541929 14.19481 6.08752 -28.13472 -11.24763 -90.03903 -0.4059699 21.83553 0 0 -7.144961 27.51199 13.82877 -22.99773
-2073.815 95.58893 1657.204 -10.43247 7.855606 -128.0337 4.494526 6.761128 -10.87886 -0 17.7144 -0 -20.46867 11.56016 6.769706 -0.5997871 -6.617079 -2.589825 -0 19.91252 -0 8.885716 -4.649434 17.57942 0.4187299 -3.437975 4.381136 -1.434298 18.0837 -4.737201 0.9132329 23.52526 3.951595 3.629466 -18.33197 3.730429 -6.64245 -26.70426 12.03218 96.30666 9.088539 -12.72577 -0 0 13.71139 -30.40412 7.543131 14.18027 6.091231 -28.16243 -11.26064 -90.02242 -0.4317622 21.79425 0 0 -7.186338 27.55098 13.8188 -23.04741
-2079.634 95.63148 1653.439 -10.39182 7.911576 -128.316 4.503018 6.692158 -10.89403 -0 17.63551 -0 -20.49196 11.58248 6.773647 -0.6004301 -6.556361 -2.579234 -0 20.00502 -0 8.885538 -4.649813 17.55881 0.4264601 -3.439912 4.373893 -1.428099 18.09167 -4.747751 0.9120943 23.52498 3.949817 3.63087 -18.3355 3.726062 -6.64975 -26.69346 12.03475 96.33142 9.072222 -12.76111 -0 0 13.67243 -30.39889 7.5455 14.16665 6.094747 -28.18768 -11.27053 -90.01001 -0.4528411 21.76228 0 0 -7.225042 27.58335 13.8112 -23.08853
-2085.433 95.67462 1649.642 -10.34716 7.965924 -128.6016 4.514925 6.641969 -10.90458 -0 17.54022 -0 -20.51084 11.58502 6.776018 -0.5956283 -6.520756 -2.567583 -0 20.08797 -0 8.883022 -4.646355 17.54168 0.4345471 -3.441323 4.370638 -1.42175 18.09757 -4.756635 0.9109654 23.52343 3.947406 3.631714 -18.34039 3.721482 -6.655411 -26.68766 12.03737 96.34755 9.061608 -12.78875 -0 0 13.64616 -30.39144 7.548853 14.15492 6.097813 -28.20869 -11.27666 -90.00256 -0.467787 21.74166 0 0 -7.258342 27.6069 13.80647 -23.11831
-2091.212 95.71646 1645.812 -10.29888 8.018548 -128.891 4.529334 6.613795 -10.90985 -0 17.43574 -0 -20.52403 11.56801 6.776664 -0.5858303 -6.51231 -2.555723 -0 20.15566 -0 8.878381 -4.639376 17.52916 0.4424037 -3.442113 4.371522 -1.415712 18.10102 -4.763245 0.9099286 23.52075 3.944544 3.631949 -18.34626 3.717024 -6.659059 -26.68719 12.03984 96.35407 9.057351 -12.80685 -0 0 13.63419 -30.38236 7.552932 14.14587 6.100218 -28.22405 -11.27867 -90.0005 -0.4756432 21.73364 0 0 -7.283958 27.62012 13.80491 -23.13484
-2096.971 95.75524 1641.952 -10.24758 8.069447 -129.1845 4.545178 6.609203 -10.90957 -0 17.32965 -0 -20.5307 11.53303 6.775572 -0.5718211 -6.531098 -2.544507 -0 20.20351 -0 8.871998 -4.629451 17.52208 0.4494743 -3.442242 4.376403 -1.410407 18.10183 -4.767156 0.9090542 23.51714 3.941448 3.631571 -18.35266 3.713002 -6.660471 -26.69197 12.04198 96.35071 9.059644 -12.81433 -0 0 13.63711 -30.37232 7.557429 14.1401 6.10181 -28.23275 -11.2765 -90.00386 -0.4759793 21.73855 0 0 -7.300217 27.62226 13.80657 -23.13719
-2102.708 95.78946 1638.062 -10.19403 8.118729 -129.482 4.561317 6.628023 -10.90388 -0 17.22938 -0 -20.53055 11.48283 6.772871 -0.5546601 -6.575265 -2.534725 -0 20.22838 -0 8.864391 -4.617364 17.52084 0.455275 -3.441719 4.38486 -1.406186 18.09999 -4.768154 0.908396 23.51287 3.93834 3.630618 -18.35917 3.709692 -6.659593 -26.7016 12.04365 96.33787 9.068212 -12.81086 -0 0 13.65445 -30.36202 7.562012 14.13794 6.102499 -28.23435 -11.27037 -90.01232 -0.4689142 21.75583 0 0 -7.306162 27.61342 13.8113 -23.12551
-2108.423 95.81792 1634.143 -10.13911 8.166602 -129.7833 4.576618 6.668408 -10.89329 -0 17.14169 -0 -20.52376 11.42116 6.768814 -0.5356032 -6.641202 -2.52705 -0 20.22882 -0 8.856159 -4.604038 17.52545 0.4594265 -3.440609 4.396232 -1.403312 18.09567 -4.766238 0.9079894 23.50824 3.935441 3.629173 -18.36537 3.707311 -6.656532 -26.71532 12.04475 96.31664 9.08234 -12.79691 -0 0 13.68473 -30.35215 7.566347 14.13946 6.102267 -28.22887 -11.26079 -90.02521 -0.4550961 21.78406 0 0 -7.301601 27.59446 13.8187 -23.10092
-2114.116 95.83984 1630.197 -10.08375 8.213363 -130.0877 4.590031 6.727026 -10.87867 -0 17.0723 -0 -20.511 11.35252 6.763747 -0.5160139 -6.72384 -2.521988 -0 20.20514 -0 8.847932 -4.590459 17.53547 0.461676 -3.439013 4.409663 -1.401943 18.08924 -4.761618 0.9078509 23.50358 3.93295 3.627348 -18.37085 3.706002 -6.651553 -26.73215 12.04522 96.28866 9.100929 -12.77368 -0 0 13.7256 -30.34335 7.570124 14.14445 6.10116 -28.2169 -11.2485 -90.04157 -0.4356433 21.82106 0 0 -7.287092 27.56695 13.82821 -23.06545
-2119.787 95.85492 1626.225 -10.02888 8.259387 -130.3945 4.600659 6.799346 -10.86114 -0 17.02554 -0 -20.49332 11.2818 6.758075 -0.4972689 -6.817041 -2.519845 -0 20.15942 -0 8.840313 -4.5776 17.55009 0.461911 -3.437064 4.424173 -1.402134 18.0812 -4.754685 0.9079797 23.4992 3.931031 3.625282 -18.37528 3.705831 -6.64505 -26.75084 12.04503 96.25604 9.122579 -12.743 -0 0 13.77397 -30.33619 7.573086 14.1525 6.099278 -28.19941 -11.23441 -90.0602 -0.4120513 21.86409 0 0 -7.263878 27.53304 13.83913 -23.02186
-2125.436 95.86332 1622.226 -9.97538 8.305092 -130.7029 4.607814 6.879998 -10.84198 -0 17.00415 -0 -20.47208 11.21399 6.752225 -0.4806651 -6.914055 -2.520708 -0 20.09532 -0 8.833833 -4.566347 17.5682 0.4601608 -3.43491 4.438723 -1.403833 18.07213 -4.745977 0.9083596 23.4954 3.929807 3.623124 -18.37836 3.706784 -6.637514 -26.77007 12.04421 96.22115 9.145698 -12.70717 -0 0 13.82631 -30.33112 7.575038 14.16296 6.09677 -28.17777 -11.21955 -90.07977 -0.3860751 21.91001 0 0 -7.233778 27.49525 13.85064 -22.97339
